<svg width="138" height="70" viewBox="0 0 138 70" fill="none" xmlns="http://www.w3.org/2000/svg">
<g clip-path="url(#clip0_18711_905)">
<path d="M138 0H0L59.5 65.7C64.7 71.5 73.3 71.5 78.5 65.7L138 0Z" fill="#81B3D3"/>
<path d="M36.7002 0.5L68.8002 38.4L100.8 0.7L36.7002 0.5Z" fill="#23A9E1"/>
<path d="M61.1001 14.6999H78.4001C77.1001 13.8999 74.0001 10.0999 72.4001 11.4999C72.3001 11.5999 67.5001 5.79992 64.4001 8.59992C61.7001 11.0999 60.4001 8.29992 57.4001 10.1999C53.8001 12.5999 59.4001 13.8999 61.1001 14.6999ZM87.8001 11.1999L78.0001 11.2999C81.9001 6.79992 83.6001 7.29992 87.8001 11.1999Z" fill="white"/>
<path d="M97.6 3.6V1.2H99.7L97.6 3.6ZM48.4 13C48.5 13.1 50.8 10.6 54.5 8.1C57.9 5.8 63.1 3.2 68.9 3.2C74.7 3.2 80 5.9 83.4 8.2C87.1 10.6 89.4 13 89.5 13.1L87 16.1C82.5 16.7 79.3 20 74.9 19.3C72.7 18.9 72.6 17.7 72 16.4C71.5 15.4 70.7 15.6 69.7 15.2C68.8 14.8 68.2 14.1 66.3 14.5C64.7 14.9 64.5 17.4 62.4 17.3C61.3 17.2 61.2 15.7 59.6 13.7C55.5 8.8 51.7606 9.41045 49.1606 13.9104L48.4 13ZM40 1.2V3.1L38.4 1.2H40ZM93.9 1.2H97.1V4.2L93.9 8V1.2ZM89.8 12.6V1.2H93.3V8.6L89.8 12.6ZM89.3 2.2V12.1C88.2 11 87 10 85.7 9.1L89.3 2.2ZM85.2 1.9V8.7C84.7 8.4 84.3 8 83.7 7.7C83 7.3 82.3 6.8 81.5 6.4L85.2 1.9ZM80.8 1.7V6C79.8 5.5 78.7 5 77.7 4.5L80.8 1.7ZM81.4 1.2H85.1L81.4 5.8V1.2ZM85.7 1.2H89.3L85.7 8.3V1.2ZM76.9 1.2H80.8L77.3 4.3C77.2 4.3 77.1 4.2 77 4.2L76.9 1.2ZM76.4 1.6V4C75.4 3.6 74.4 3.3 73.3 3.1L76.4 1.6ZM72.2 1.6V2.9C71.5 2.8 70.8 2.7 70 2.6L72.2 1.6ZM65.4 1.6L67.6 2.6C66.8 2.6 66.1 2.7 65.4 2.9V1.6ZM61.3 1.6L64.4 3.1C63.3 3.3 62.3 3.6 61.3 4V1.6ZM64.9 2.8L61.6 1.2H64.9V2.8ZM68.4 2.4L65.6 1.1H68.4V2.4ZM69.1 1.2H72L69.1 2.5V1.2ZM72.8 1.2H76L72.8 2.8V1.2ZM60.4 4.3L56.9 1.2H60.8V4.2L60.4 4.3ZM56.8 1.7L59.9 4.4C58.8 4.8 57.8 5.3 56.8 5.9V1.7ZM52.5 1.9L56.1 6.4C54.8 7.1 53.6 7.9 52.5 8.8V1.9ZM48.3 2.2L51.9 9.2C50.6 10.2 49.4 11.2 48.3 12.4V2.2ZM52 8.2L48.4 1.1H52V8.2ZM56.3 5.7L52.6 1.1H56.3V5.7ZM43.7 7.5L40.5 3.7V1.2H43.7V7.5ZM44.3 1.2H47.8V12.4L44.3 8.2V1.2ZM36 0V14.6L69 54.5L102 15V0H36Z" fill="#491213"/>
<path d="M66.4 46L69 41.8L71.6 46L69 50.2001L66.4 46Z" fill="#23A9E1"/>
<path d="M74.1999 30.6C70.7999 28.6 71.5999 27.1 74.3999 25.7C75.8999 25 79.1999 22.3 80.4999 23.2L74.1999 30.6ZM71.8999 33.1C69.8999 33 67.5999 32.7 65.5999 33.2C66.7999 33.5 69.7999 34.4 66.9999 35.1C67.9999 36.5 69.5999 36.4 70.5999 35.2C70.1999 35 69.8999 34.7 69.5999 34.5C70.6999 34.2 71.6999 33.6 71.8999 33.1ZM73.0999 31.5C72.1999 30.7 71.1999 30.7 70.3999 31.5C69.1999 29.4 64.9999 30.1 62.9999 29.8C64.0999 32.4 72.5999 32.9 73.0999 31.5ZM66.2999 29.3C64.6999 28.8 59.4999 28.9 62.8999 27.5C63.9999 27.1 69.5999 27.6 66.2999 29.3ZM68.2999 26.3C67.7999 25.2 68.6999 23.9 69.9999 24.9C71.1999 25.7 69.3999 26.9 68.2999 26.3ZM65.3999 26.4C63.0999 27.1 60.0999 25.6 63.7999 24.9C66.0999 24.4 68.4999 25.4 65.3999 26.4C65.4999 26.4 65.2999 26.4 65.3999 26.4ZM62.7999 20.2C62.2999 21.8 61.2999 22.1 61.3999 20.2C61.4999 17.9 62.9999 18.5 64.5999 17.6C65.8999 16.9 66.5999 14.2 68.8999 15.8C69.8999 16.5 71.0999 15.9 71.3999 17C71.3999 16.9 68.4999 23.7 70.0999 23.7C66.8999 23.7 68.2999 19.9 69.4999 17.3C68.2999 17.9 66.3999 21.6 67.9999 22.3C67.1999 23.4 64.5999 24.9 63.2999 23.8C62.1999 22.8 62.7999 21.5 62.7999 20.2ZM58.7999 23C53.1999 23 56.9999 14.4 58.8999 14.9C61.0999 15.6 60.7999 23.1 58.7999 23ZM52.5999 14.8C49.9999 14.7 51.0999 12.2 52.8999 11.7C54.5999 11.2 58.0999 12.8 59.2999 13.9C57.4999 14.5 55.1999 14.4 53.1999 14.5C52.9999 12.5 52.4999 13.2 52.5999 14.8Z" fill="#DC6243"/>
<path d="M71.8001 25.8001C68.9001 22.8001 76.1001 23.1001 77.3001 22.0001C78.1001 22.3001 84.3001 16.6001 85.8001 17.0001C84.7001 18.3001 82.4001 22.3001 80.8001 22.3001C79.5001 22.3001 78.2001 22.1001 77.2001 23.0001C75.7001 24.4001 73.3001 25.1001 71.8001 25.8001Z" fill="#F49774"/>
<path d="M72.7001 22.2C71.1001 23.1 69.6001 19.7 72.4001 20C74.2001 20.2 76.1001 19.8 77.8001 20.1C76.5001 21.6 74.7001 22.4 72.7001 22.2Z" fill="#F4B1A4"/>
<path d="M51.0998 20.9001C51.3998 21.3001 51.6998 21.7001 51.5998 22.3001C51.5998 22.7001 50.9998 23.3001 51.3998 23.5001L52.8998 21.7001C52.4998 21.6001 49.3998 17.9001 49.3998 17.5001L47.2998 18.6001C47.3998 19.0001 48.0998 18.6001 48.4998 18.6001C48.9998 18.6001 49.3998 19.0001 49.7998 19.3001C48.6998 20.2001 45.9998 22.6001 45.6998 22.6001C45.5998 22.6001 44.9998 22.2001 44.9998 22.6001C44.9998 22.8001 45.5998 23.3001 45.6998 23.4001L47.0998 25.1001C47.4998 24.9001 46.9998 24.6001 47.1998 24.3001C47.2998 24.1001 50.3998 21.6001 51.0998 20.9001ZM47.6998 16.4001C47.9998 16.3001 48.0998 16.7001 48.2998 16.4001L46.6998 14.5001C46.4998 14.2001 46.1998 13.9001 46.1998 14.5001C46.2998 14.9001 42.1998 18.2001 41.9998 18.3001C41.6998 18.4001 41.4998 18.0001 41.2998 18.4001C41.7998 19.0001 42.1998 19.5001 42.6998 20.1001C42.8998 20.3001 42.9998 20.5001 43.1998 20.7001C43.3998 20.9001 43.2998 20.3001 43.2998 20.3001C43.1998 20.0001 43.5998 19.7001 43.8998 19.5001C44.8998 18.5001 47.3998 16.4001 47.6998 16.4001ZM41.9998 15.8001C40.8998 16.1001 39.5998 15.7001 39.2998 14.5001C38.8998 13.3001 39.6998 12.1001 40.5998 11.4001C41.4998 10.7001 42.8998 10.8001 43.3998 11.9001C43.5998 12.4001 43.4998 13.0001 43.2998 13.5001C43.1998 13.8001 42.8998 14.1001 43.2998 14.3001C43.8998 13.6001 44.3998 12.9001 44.9998 12.2001C44.2998 11.8001 43.9998 11.1001 43.4998 10.5001C42.8998 9.80008 42.1998 9.10008 41.1998 9.00008C39.2998 8.70008 37.5998 10.7001 37.3998 12.4001C37.2998 13.3001 37.5998 14.2001 38.1998 15.0001C38.6998 15.6001 39.3998 16.1001 39.7998 16.8001C39.9998 16.9001 41.5998 16.1001 41.8998 16.0001C42.0998 16.0001 41.9998 15.9001 41.9998 15.8001C41.4998 16.0001 41.9998 15.8001 41.9998 15.8001ZM67.4998 39.4001C66.7998 38.9001 64.8998 36.4001 64.4998 35.9001L64.2998 35.6001L64.0998 35.7001C63.9998 35.8001 64.1998 36.1001 64.0998 36.3001C63.5998 37.1001 60.3998 39.5001 60.1998 39.7001C59.7998 39.9001 59.3998 39.6001 59.1998 39.9001C59.6998 40.5001 60.9998 42.2001 61.1998 42.2001C61.4998 42.2001 61.2998 41.7001 61.2998 41.6001C61.3998 41.4001 62.9998 40.0001 63.5998 39.5001C63.7998 39.3001 63.9998 39.8001 64.1998 40.0001C64.3998 40.3001 64.4998 40.7001 64.3998 41.0001C64.2998 41.2001 63.8998 41.6001 64.1998 41.8001C64.5998 41.3001 65.6998 40.0001 65.8998 39.8001C66.0998 39.6001 65.4998 39.8001 65.5998 39.7001C65.3998 39.8001 65.0998 39.9001 64.8998 39.7001C64.7998 39.7001 64.1998 39.0001 64.2998 38.9001C64.5998 38.7001 64.8998 38.3001 65.2998 38.2001C65.8998 38.1001 66.2998 39.2001 66.3998 39.6001C66.4998 40.0001 66.4998 40.4001 66.2998 40.7001C66.1998 41.0001 65.9998 41.2001 66.2998 41.3001L67.6998 39.4001C67.6998 39.5001 67.5998 39.5001 67.4998 39.4001C67.3998 39.4001 67.5998 39.5001 67.4998 39.4001ZM58.2998 30.5001C57.5998 30.5001 56.8998 30.8001 56.2998 31.3001C54.8998 32.5001 54.6998 34.6001 55.7998 36.1001C57.0998 37.8001 59.1998 38.0001 60.8998 36.8001C62.2998 35.6001 62.4998 33.5001 61.3998 32.0001C60.5998 31.0001 59.3998 30.5001 58.2998 30.5001ZM59.4998 31.9001C60.3998 31.8001 60.9998 32.7001 60.5998 33.7001C60.1998 34.7001 59.1998 35.7001 58.1998 36.1001C56.9998 36.6001 56.1998 35.6001 56.6998 34.4001C57.0998 33.4001 58.0998 32.4001 59.0998 32.0001C59.1998 32.0001 59.2998 31.9001 59.4998 31.9001ZM56.6998 27.3001C56.9998 27.3001 57.2998 27.7001 57.4998 27.3001L56.0998 25.6001C55.6998 25.8001 56.0998 26.0001 55.9998 26.2001C55.7998 26.5001 54.2998 26.7001 53.8998 26.8001C53.9998 26.4001 54.4998 25.1001 54.6998 25.0001C55.0998 24.7001 55.2998 25.3001 55.4998 24.9001L53.6998 22.8001C53.4998 22.6001 53.2998 22.1001 53.0998 22.4001C53.0998 22.4001 53.0998 23.4001 52.9998 23.5001C52.8998 23.7001 52.3998 25.9001 51.7998 26.4001C51.4998 26.7001 50.2998 27.7001 49.9998 27.8001C49.6998 27.9001 49.4998 27.4001 49.1998 27.8001L50.7998 29.7001C50.8998 29.8001 51.1998 30.3001 51.2998 30.3001C51.5998 30.4001 51.2998 29.7001 51.3998 29.6001C51.4998 29.3001 52.9998 27.8001 53.6998 27.7001C54.5998 27.5001 55.6998 27.2001 56.6998 27.3001C56.8998 27.3001 56.4998 27.3001 56.6998 27.3001ZM80.8998 34.0001C80.9998 34.4001 81.0998 34.9001 80.9998 35.3001C80.8998 35.9001 80.3998 37.2001 79.5998 36.8001C78.7998 36.4001 78.1998 35.7001 77.4998 35.1001C77.9998 34.5001 78.4998 34.0001 79.3998 34.3001C79.5998 34.4001 79.7998 34.3001 79.5998 34.1001C79.2998 33.9001 77.5998 32.8001 77.4998 32.9001C77.2998 33.1001 77.7998 33.5001 77.5998 33.9001C77.4998 34.2001 77.1998 34.4001 76.9998 34.7001C76.4998 34.3001 75.7998 33.9001 76.2998 33.2001C76.6998 32.8001 77.0998 32.4001 77.6998 32.3001C78.0998 32.2001 78.8998 32.6001 78.9998 32.2001C78.2998 31.9001 77.5998 31.5001 76.8998 31.2001C76.9998 31.7001 74.6998 34.1001 74.1998 34.7001C74.0998 34.8001 73.7998 35.1001 73.7998 35.2001C73.7998 35.5001 74.1998 35.3001 74.1998 35.3001C74.4998 35.2001 78.5998 38.6001 78.6998 38.9001C78.7998 39.1001 78.5998 39.3001 78.6998 39.4001C78.6998 39.4001 78.7998 39.5001 78.8998 39.5001C79.1998 39.2001 81.7998 35.6001 82.3998 35.5001C81.8998 34.7001 81.3998 33.9001 80.8998 33.1001C80.4998 33.3001 80.7998 33.8001 80.8998 34.0001ZM76.8998 38.4001C75.5998 37.5001 73.2998 39.2001 72.8998 39.4001C72.1998 39.7001 71.6998 39.0001 72.0998 38.4001C72.3998 37.9001 72.9998 37.6001 73.5998 37.6001C73.7998 37.6001 74.4998 37.7001 74.4998 37.6001C74.5998 37.5001 74.5998 37.5001 74.4998 37.4001C73.8998 37.0001 73.3998 36.6001 72.7998 36.3001C72.6998 37.0001 71.8998 37.4001 71.4998 37.9001C70.9998 38.5001 70.4998 39.2001 70.4998 39.9001C70.4998 40.6001 70.8998 41.3001 71.5998 41.6001C72.2998 42.0001 73.0998 41.7001 73.7998 41.3001C74.1998 41.0001 74.5998 40.7001 74.9998 40.5001C75.5998 40.2001 76.4998 40.5001 76.2998 41.3001C76.0998 42.0001 75.3998 42.6001 74.6998 42.8001C74.2998 42.9001 73.8998 42.9001 73.4998 42.7001C73.1998 42.6001 72.8998 42.2001 72.6998 42.6001L74.9998 44.2001C75.0998 43.7001 75.2998 43.5001 75.6998 43.2001C76.1998 42.8001 76.5998 42.3001 76.9998 41.8001C77.7998 40.9001 78.0998 39.3001 76.8998 38.4001ZM94.4998 10.3001C94.4998 10.4001 94.4998 10.4001 94.4998 10.3001L93.5998 11.3001L92.7998 12.3001C92.5998 12.5001 92.4998 12.6001 92.7998 12.8001C93.2998 12.5001 96.2998 17.6001 96.0998 18.3001C95.5998 18.5001 91.5998 15.0001 91.4998 14.8001C91.4998 14.7001 91.6998 14.1001 91.3998 14.2001C91.2998 14.2001 90.8998 14.8001 90.7998 14.9001L90.1998 15.6001C90.3998 15.9001 90.4998 15.6001 90.7998 15.6001C90.9998 15.7001 91.9998 16.5001 92.2998 16.7001C91.7998 16.7001 90.5998 16.8001 90.3998 16.8001C89.7998 16.9001 90.0998 16.4001 89.6998 16.2001L88.1998 18.0001L87.2998 19.0001C87.2998 19.0001 87.2998 19.0001 87.2998 19.1001C87.4998 19.3001 87.3998 19.2001 87.6998 19.1001C87.9998 19.0001 91.9998 22.3001 92.0998 22.5001C92.2998 22.8001 91.9998 23.1001 92.3998 23.3001L93.5998 21.9001C93.6998 21.8001 93.6998 21.8001 93.5998 21.8001C93.2998 21.6001 93.2998 21.9001 92.8998 21.9001C92.5998 21.8001 89.9998 19.7001 89.0998 18.9001L94.3998 18.7001C94.5998 18.7001 95.0998 19.3001 95.0998 19.5001C94.9998 19.7001 94.7998 19.9001 95.0998 20.0001C95.3998 19.6001 95.6998 19.3001 95.9998 18.9001L96.0998 18.7001C96.1998 18.7001 96.1998 18.6001 96.1998 18.5001L96.2998 18.4001C96.5998 18.1001 97.4998 17.1001 97.3998 17.0001C97.0998 16.7001 96.9998 17.3001 96.5998 17.0001C96.3998 16.8001 95.7998 15.8001 95.6998 15.6001C95.4998 15.3001 96.0998 15.0001 96.2998 14.9001C96.7998 14.6001 98.3998 14.1001 98.5998 15.1001C98.5998 15.3001 98.3998 15.5001 98.4998 15.6001C98.4998 15.6001 98.5998 15.8001 98.6998 15.7001L100.8 13.1001C100.7 13.0001 100.7 13.0001 100.6 12.9001C100.1 13.4001 95.0998 11.4001 94.7998 11.1001C94.6998 10.9001 94.6998 10.3001 94.4998 10.3001ZM94.2998 12.9001C95.0998 13.2001 95.7998 13.5001 96.5998 13.9001C96.3998 14.0001 96.1998 14.1001 95.9998 14.2001C95.7998 14.3001 95.5998 14.5001 95.3998 14.7001L94.2998 12.9001ZM87.6998 20.6001C86.5998 20.5001 85.4998 21.0001 84.6998 21.9001C83.4998 23.4001 83.5998 25.6001 85.0998 26.8001C86.5998 28.0001 88.7998 27.7001 89.9998 26.3001C91.1998 24.8001 91.0998 22.6001 89.5998 21.4001C89.0998 21.0001 88.3998 20.7001 87.6998 20.6001ZM86.2998 22.2001C86.8998 22.2001 87.5998 22.6001 87.9998 22.9001C88.7998 23.4001 90.1998 24.6001 89.4998 25.6001C89.4998 25.5001 89.5998 25.5001 89.3998 25.7001C88.5998 26.5001 87.1998 25.8001 86.4998 25.2001C85.7998 24.7001 84.4998 23.5001 85.2998 22.5001C85.5998 22.3001 85.8998 22.2001 86.2998 22.2001ZM83.1998 26.5001C81.9998 26.4001 80.7998 27.0001 79.8998 28.1001C79.2998 28.9001 78.5998 29.6001 77.9998 30.4001C78.1998 30.7001 78.4998 30.3001 78.7998 30.5001C79.0998 30.7001 82.8998 33.8001 82.8998 34.0001C82.9998 34.3001 82.6998 34.4001 82.9998 34.6001C83.0998 34.7001 85.8998 31.2001 86.1998 30.6001C86.5998 29.5001 86.2998 28.2001 85.3998 27.4001C85.4998 27.5001 85.5998 27.5001 85.3998 27.4001C84.5998 26.8001 83.8998 26.5001 83.1998 26.5001ZM82.0998 28.1001C82.1998 28.1001 82.2998 28.1001 82.3998 28.1001C83.7998 28.5001 85.7998 30.2001 84.4998 31.7001C84.2998 31.9001 84.4998 31.7001 84.0998 32.1001C83.8998 32.3001 79.8998 29.1001 80.0998 28.9001C80.4998 28.4001 81.3998 28.0001 82.0998 28.1001Z" fill="white"/>
</g>
<defs>
<clipPath id="clip0_18711_905">
<rect width="138" height="70" fill="white"/>
</clipPath>
</defs>
</svg>
